<?xml version="1.0" encoding="utf-8" standalone="no"?>
<!DOCTYPE svg PUBLIC "-//W3C//DTD SVG 1.1//EN"
  "http://www.w3.org/Graphics/SVG/1.1/DTD/svg11.dtd">
<!-- Created with matplotlib (http://matplotlib.org/) -->
<svg height="345pt" version="1.1" viewBox="0 0 460 345" width="460pt" xmlns="http://www.w3.org/2000/svg" xmlns:xlink="http://www.w3.org/1999/xlink">
 <defs>
  <style type="text/css">
*{stroke-linecap:butt;stroke-linejoin:round;}
  </style>
 </defs>
 <g id="figure_1">
  <g id="patch_1">
   <path d="M 0 345.6 
L 460.8 345.6 
L 460.8 0 
L 0 0 
z
" style="fill:#ffffff;"/>
  </g>
  <g id="axes_1">
   <g id="patch_2">
    <path d="M 57.6 307.584 
L 414.72 307.584 
L 414.72 41.472 
L 57.6 41.472 
z
" style="fill:#ffffff;"/>
   </g>
   <g id="matplotlib.axis_1">
    <g id="xtick_1">
     <g id="line2d_1">
      <path clip-path="url(#p5fd1f5817c)" d="M 73.832727 307.584 
L 73.832727 41.472 
" style="fill:none;stroke:#b0b0b0;stroke-linecap:square;stroke-width:0.8;"/>
     </g>
     <g id="line2d_2">
      <defs>
       <path d="M 0 0 
L 0 3.5 
" id="m9bded84250" style="stroke:#000000;stroke-width:0.8;"/>
      </defs>
      <g>
       <use style="stroke:#000000;stroke-width:0.8;" x="73.832727" xlink:href="#m9bded84250" y="307.584"/>
      </g>
     </g>
     <g id="text_1">
      <!-- 0 -->
      <defs>
       <path d="M 31.78125 66.40625 
Q 24.171875 66.40625 20.328125 58.90625 
Q 16.5 51.421875 16.5 36.375 
Q 16.5 21.390625 20.328125 13.890625 
Q 24.171875 6.390625 31.78125 6.390625 
Q 39.453125 6.390625 43.28125 13.890625 
Q 47.125 21.390625 47.125 36.375 
Q 47.125 51.421875 43.28125 58.90625 
Q 39.453125 66.40625 31.78125 66.40625 
M 31.78125 74.21875 
Q 44.046875 74.21875 50.515625 64.515625 
Q 56.984375 54.828125 56.984375 36.375 
Q 56.984375 17.96875 50.515625 8.265625 
Q 44.046875 -1.421875 31.78125 -1.421875 
Q 19.53125 -1.421875 13.0625 8.265625 
Q 6.59375 17.96875 6.59375 36.375 
Q 6.59375 54.828125 13.0625 64.515625 
Q 19.53125 74.21875 31.78125 74.21875 
" id="DejaVuSans-30"/>
      </defs>
      <g transform="translate(70.651477 322.182437)scale(0.1 -0.1)">
       <use xlink:href="#DejaVuSans-30"/>
      </g>
     </g>
    </g>
    <g id="xtick_2">
     <g id="line2d_3">
      <path clip-path="url(#p5fd1f5817c)" d="M 138.893758 307.584 
L 138.893758 41.472 
" style="fill:none;stroke:#b0b0b0;stroke-linecap:square;stroke-width:0.8;"/>
     </g>
     <g id="line2d_4">
      <g>
       <use style="stroke:#000000;stroke-width:0.8;" x="138.893758" xlink:href="#m9bded84250" y="307.584"/>
      </g>
     </g>
     <g id="text_2">
      <!-- 100 -->
      <defs>
       <path d="M 12.40625 8.296875 
L 28.515625 8.296875 
L 28.515625 63.921875 
L 10.984375 60.40625 
L 10.984375 69.390625 
L 28.421875 72.90625 
L 38.28125 72.90625 
L 38.28125 8.296875 
L 54.390625 8.296875 
L 54.390625 0 
L 12.40625 0 
z
" id="DejaVuSans-31"/>
      </defs>
      <g transform="translate(129.350008 322.182437)scale(0.1 -0.1)">
       <use xlink:href="#DejaVuSans-31"/>
       <use x="63.623047" xlink:href="#DejaVuSans-30"/>
       <use x="127.246094" xlink:href="#DejaVuSans-30"/>
      </g>
     </g>
    </g>
    <g id="xtick_3">
     <g id="line2d_5">
      <path clip-path="url(#p5fd1f5817c)" d="M 203.95479 307.584 
L 203.95479 41.472 
" style="fill:none;stroke:#b0b0b0;stroke-linecap:square;stroke-width:0.8;"/>
     </g>
     <g id="line2d_6">
      <g>
       <use style="stroke:#000000;stroke-width:0.8;" x="203.95479" xlink:href="#m9bded84250" y="307.584"/>
      </g>
     </g>
     <g id="text_3">
      <!-- 200 -->
      <defs>
       <path d="M 19.1875 8.296875 
L 53.609375 8.296875 
L 53.609375 0 
L 7.328125 0 
L 7.328125 8.296875 
Q 12.9375 14.109375 22.625 23.890625 
Q 32.328125 33.6875 34.8125 36.53125 
Q 39.546875 41.84375 41.421875 45.53125 
Q 43.3125 49.21875 43.3125 52.78125 
Q 43.3125 58.59375 39.234375 62.25 
Q 35.15625 65.921875 28.609375 65.921875 
Q 23.96875 65.921875 18.8125 64.3125 
Q 13.671875 62.703125 7.8125 59.421875 
L 7.8125 69.390625 
Q 13.765625 71.78125 18.9375 73 
Q 24.125 74.21875 28.421875 74.21875 
Q 39.75 74.21875 46.484375 68.546875 
Q 53.21875 62.890625 53.21875 53.421875 
Q 53.21875 48.921875 51.53125 44.890625 
Q 49.859375 40.875 45.40625 35.40625 
Q 44.1875 33.984375 37.640625 27.21875 
Q 31.109375 20.453125 19.1875 8.296875 
" id="DejaVuSans-32"/>
      </defs>
      <g transform="translate(194.41104 322.182437)scale(0.1 -0.1)">
       <use xlink:href="#DejaVuSans-32"/>
       <use x="63.623047" xlink:href="#DejaVuSans-30"/>
       <use x="127.246094" xlink:href="#DejaVuSans-30"/>
      </g>
     </g>
    </g>
    <g id="xtick_4">
     <g id="line2d_7">
      <path clip-path="url(#p5fd1f5817c)" d="M 269.015821 307.584 
L 269.015821 41.472 
" style="fill:none;stroke:#b0b0b0;stroke-linecap:square;stroke-width:0.8;"/>
     </g>
     <g id="line2d_8">
      <g>
       <use style="stroke:#000000;stroke-width:0.8;" x="269.015821" xlink:href="#m9bded84250" y="307.584"/>
      </g>
     </g>
     <g id="text_4">
      <!-- 300 -->
      <defs>
       <path d="M 40.578125 39.3125 
Q 47.65625 37.796875 51.625 33 
Q 55.609375 28.21875 55.609375 21.1875 
Q 55.609375 10.40625 48.1875 4.484375 
Q 40.765625 -1.421875 27.09375 -1.421875 
Q 22.515625 -1.421875 17.65625 -0.515625 
Q 12.796875 0.390625 7.625 2.203125 
L 7.625 11.71875 
Q 11.71875 9.328125 16.59375 8.109375 
Q 21.484375 6.890625 26.8125 6.890625 
Q 36.078125 6.890625 40.9375 10.546875 
Q 45.796875 14.203125 45.796875 21.1875 
Q 45.796875 27.640625 41.28125 31.265625 
Q 36.765625 34.90625 28.71875 34.90625 
L 20.21875 34.90625 
L 20.21875 43.015625 
L 29.109375 43.015625 
Q 36.375 43.015625 40.234375 45.921875 
Q 44.09375 48.828125 44.09375 54.296875 
Q 44.09375 59.90625 40.109375 62.90625 
Q 36.140625 65.921875 28.71875 65.921875 
Q 24.65625 65.921875 20.015625 65.03125 
Q 15.375 64.15625 9.8125 62.3125 
L 9.8125 71.09375 
Q 15.4375 72.65625 20.34375 73.4375 
Q 25.25 74.21875 29.59375 74.21875 
Q 40.828125 74.21875 47.359375 69.109375 
Q 53.90625 64.015625 53.90625 55.328125 
Q 53.90625 49.265625 50.4375 45.09375 
Q 46.96875 40.921875 40.578125 39.3125 
" id="DejaVuSans-33"/>
      </defs>
      <g transform="translate(259.472071 322.182437)scale(0.1 -0.1)">
       <use xlink:href="#DejaVuSans-33"/>
       <use x="63.623047" xlink:href="#DejaVuSans-30"/>
       <use x="127.246094" xlink:href="#DejaVuSans-30"/>
      </g>
     </g>
    </g>
    <g id="xtick_5">
     <g id="line2d_9">
      <path clip-path="url(#p5fd1f5817c)" d="M 334.076852 307.584 
L 334.076852 41.472 
" style="fill:none;stroke:#b0b0b0;stroke-linecap:square;stroke-width:0.8;"/>
     </g>
     <g id="line2d_10">
      <g>
       <use style="stroke:#000000;stroke-width:0.8;" x="334.076852" xlink:href="#m9bded84250" y="307.584"/>
      </g>
     </g>
     <g id="text_5">
      <!-- 400 -->
      <defs>
       <path d="M 37.796875 64.3125 
L 12.890625 25.390625 
L 37.796875 25.390625 
z
M 35.203125 72.90625 
L 47.609375 72.90625 
L 47.609375 25.390625 
L 58.015625 25.390625 
L 58.015625 17.1875 
L 47.609375 17.1875 
L 47.609375 0 
L 37.796875 0 
L 37.796875 17.1875 
L 4.890625 17.1875 
L 4.890625 26.703125 
z
" id="DejaVuSans-34"/>
      </defs>
      <g transform="translate(324.533102 322.182437)scale(0.1 -0.1)">
       <use xlink:href="#DejaVuSans-34"/>
       <use x="63.623047" xlink:href="#DejaVuSans-30"/>
       <use x="127.246094" xlink:href="#DejaVuSans-30"/>
      </g>
     </g>
    </g>
    <g id="xtick_6">
     <g id="line2d_11">
      <path clip-path="url(#p5fd1f5817c)" d="M 399.137883 307.584 
L 399.137883 41.472 
" style="fill:none;stroke:#b0b0b0;stroke-linecap:square;stroke-width:0.8;"/>
     </g>
     <g id="line2d_12">
      <g>
       <use style="stroke:#000000;stroke-width:0.8;" x="399.137883" xlink:href="#m9bded84250" y="307.584"/>
      </g>
     </g>
     <g id="text_6">
      <!-- 500 -->
      <defs>
       <path d="M 10.796875 72.90625 
L 49.515625 72.90625 
L 49.515625 64.59375 
L 19.828125 64.59375 
L 19.828125 46.734375 
Q 21.96875 47.46875 24.109375 47.828125 
Q 26.265625 48.1875 28.421875 48.1875 
Q 40.625 48.1875 47.75 41.5 
Q 54.890625 34.8125 54.890625 23.390625 
Q 54.890625 11.625 47.5625 5.09375 
Q 40.234375 -1.421875 26.90625 -1.421875 
Q 22.3125 -1.421875 17.546875 -0.640625 
Q 12.796875 0.140625 7.71875 1.703125 
L 7.71875 11.625 
Q 12.109375 9.234375 16.796875 8.0625 
Q 21.484375 6.890625 26.703125 6.890625 
Q 35.15625 6.890625 40.078125 11.328125 
Q 45.015625 15.765625 45.015625 23.390625 
Q 45.015625 31 40.078125 35.4375 
Q 35.15625 39.890625 26.703125 39.890625 
Q 22.75 39.890625 18.8125 39.015625 
Q 14.890625 38.140625 10.796875 36.28125 
z
" id="DejaVuSans-35"/>
      </defs>
      <g transform="translate(389.594133 322.182437)scale(0.1 -0.1)">
       <use xlink:href="#DejaVuSans-35"/>
       <use x="63.623047" xlink:href="#DejaVuSans-30"/>
       <use x="127.246094" xlink:href="#DejaVuSans-30"/>
      </g>
     </g>
    </g>
    <g id="text_7">
     <!-- Generations -->
     <defs>
      <path d="M 59.515625 10.40625 
L 59.515625 29.984375 
L 43.40625 29.984375 
L 43.40625 38.09375 
L 69.28125 38.09375 
L 69.28125 6.78125 
Q 63.578125 2.734375 56.6875 0.65625 
Q 49.8125 -1.421875 42 -1.421875 
Q 24.90625 -1.421875 15.25 8.5625 
Q 5.609375 18.5625 5.609375 36.375 
Q 5.609375 54.25 15.25 64.234375 
Q 24.90625 74.21875 42 74.21875 
Q 49.125 74.21875 55.546875 72.453125 
Q 61.96875 70.703125 67.390625 67.28125 
L 67.390625 56.78125 
Q 61.921875 61.421875 55.765625 63.765625 
Q 49.609375 66.109375 42.828125 66.109375 
Q 29.4375 66.109375 22.71875 58.640625 
Q 16.015625 51.171875 16.015625 36.375 
Q 16.015625 21.625 22.71875 14.15625 
Q 29.4375 6.6875 42.828125 6.6875 
Q 48.046875 6.6875 52.140625 7.59375 
Q 56.25 8.5 59.515625 10.40625 
" id="DejaVuSans-47"/>
      <path d="M 56.203125 29.59375 
L 56.203125 25.203125 
L 14.890625 25.203125 
Q 15.484375 15.921875 20.484375 11.0625 
Q 25.484375 6.203125 34.421875 6.203125 
Q 39.59375 6.203125 44.453125 7.46875 
Q 49.3125 8.734375 54.109375 11.28125 
L 54.109375 2.78125 
Q 49.265625 0.734375 44.1875 -0.34375 
Q 39.109375 -1.421875 33.890625 -1.421875 
Q 20.796875 -1.421875 13.15625 6.1875 
Q 5.515625 13.8125 5.515625 26.8125 
Q 5.515625 40.234375 12.765625 48.109375 
Q 20.015625 56 32.328125 56 
Q 43.359375 56 49.78125 48.890625 
Q 56.203125 41.796875 56.203125 29.59375 
M 47.21875 32.234375 
Q 47.125 39.59375 43.09375 43.984375 
Q 39.0625 48.390625 32.421875 48.390625 
Q 24.90625 48.390625 20.390625 44.140625 
Q 15.875 39.890625 15.1875 32.171875 
z
" id="DejaVuSans-65"/>
      <path d="M 54.890625 33.015625 
L 54.890625 0 
L 45.90625 0 
L 45.90625 32.71875 
Q 45.90625 40.484375 42.875 44.328125 
Q 39.84375 48.1875 33.796875 48.1875 
Q 26.515625 48.1875 22.3125 43.546875 
Q 18.109375 38.921875 18.109375 30.90625 
L 18.109375 0 
L 9.078125 0 
L 9.078125 54.6875 
L 18.109375 54.6875 
L 18.109375 46.1875 
Q 21.34375 51.125 25.703125 53.5625 
Q 30.078125 56 35.796875 56 
Q 45.21875 56 50.046875 50.171875 
Q 54.890625 44.34375 54.890625 33.015625 
" id="DejaVuSans-6e"/>
      <path d="M 41.109375 46.296875 
Q 39.59375 47.171875 37.8125 47.578125 
Q 36.03125 48 33.890625 48 
Q 26.265625 48 22.1875 43.046875 
Q 18.109375 38.09375 18.109375 28.8125 
L 18.109375 0 
L 9.078125 0 
L 9.078125 54.6875 
L 18.109375 54.6875 
L 18.109375 46.1875 
Q 20.953125 51.171875 25.484375 53.578125 
Q 30.03125 56 36.53125 56 
Q 37.453125 56 38.578125 55.875 
Q 39.703125 55.765625 41.0625 55.515625 
z
" id="DejaVuSans-72"/>
      <path d="M 34.28125 27.484375 
Q 23.390625 27.484375 19.1875 25 
Q 14.984375 22.515625 14.984375 16.5 
Q 14.984375 11.71875 18.140625 8.90625 
Q 21.296875 6.109375 26.703125 6.109375 
Q 34.1875 6.109375 38.703125 11.40625 
Q 43.21875 16.703125 43.21875 25.484375 
L 43.21875 27.484375 
z
M 52.203125 31.203125 
L 52.203125 0 
L 43.21875 0 
L 43.21875 8.296875 
Q 40.140625 3.328125 35.546875 0.953125 
Q 30.953125 -1.421875 24.3125 -1.421875 
Q 15.921875 -1.421875 10.953125 3.296875 
Q 6 8.015625 6 15.921875 
Q 6 25.140625 12.171875 29.828125 
Q 18.359375 34.515625 30.609375 34.515625 
L 43.21875 34.515625 
L 43.21875 35.40625 
Q 43.21875 41.609375 39.140625 45 
Q 35.0625 48.390625 27.6875 48.390625 
Q 23 48.390625 18.546875 47.265625 
Q 14.109375 46.140625 10.015625 43.890625 
L 10.015625 52.203125 
Q 14.9375 54.109375 19.578125 55.046875 
Q 24.21875 56 28.609375 56 
Q 40.484375 56 46.34375 49.84375 
Q 52.203125 43.703125 52.203125 31.203125 
" id="DejaVuSans-61"/>
      <path d="M 18.3125 70.21875 
L 18.3125 54.6875 
L 36.8125 54.6875 
L 36.8125 47.703125 
L 18.3125 47.703125 
L 18.3125 18.015625 
Q 18.3125 11.328125 20.140625 9.421875 
Q 21.96875 7.515625 27.59375 7.515625 
L 36.8125 7.515625 
L 36.8125 0 
L 27.59375 0 
Q 17.1875 0 13.234375 3.875 
Q 9.28125 7.765625 9.28125 18.015625 
L 9.28125 47.703125 
L 2.6875 47.703125 
L 2.6875 54.6875 
L 9.28125 54.6875 
L 9.28125 70.21875 
z
" id="DejaVuSans-74"/>
      <path d="M 9.421875 54.6875 
L 18.40625 54.6875 
L 18.40625 0 
L 9.421875 0 
z
M 9.421875 75.984375 
L 18.40625 75.984375 
L 18.40625 64.59375 
L 9.421875 64.59375 
z
" id="DejaVuSans-69"/>
      <path d="M 30.609375 48.390625 
Q 23.390625 48.390625 19.1875 42.75 
Q 14.984375 37.109375 14.984375 27.296875 
Q 14.984375 17.484375 19.15625 11.84375 
Q 23.34375 6.203125 30.609375 6.203125 
Q 37.796875 6.203125 41.984375 11.859375 
Q 46.1875 17.53125 46.1875 27.296875 
Q 46.1875 37.015625 41.984375 42.703125 
Q 37.796875 48.390625 30.609375 48.390625 
M 30.609375 56 
Q 42.328125 56 49.015625 48.375 
Q 55.71875 40.765625 55.71875 27.296875 
Q 55.71875 13.875 49.015625 6.21875 
Q 42.328125 -1.421875 30.609375 -1.421875 
Q 18.84375 -1.421875 12.171875 6.21875 
Q 5.515625 13.875 5.515625 27.296875 
Q 5.515625 40.765625 12.171875 48.375 
Q 18.84375 56 30.609375 56 
" id="DejaVuSans-6f"/>
      <path d="M 44.28125 53.078125 
L 44.28125 44.578125 
Q 40.484375 46.53125 36.375 47.5 
Q 32.28125 48.484375 27.875 48.484375 
Q 21.1875 48.484375 17.84375 46.4375 
Q 14.5 44.390625 14.5 40.28125 
Q 14.5 37.15625 16.890625 35.375 
Q 19.28125 33.59375 26.515625 31.984375 
L 29.59375 31.296875 
Q 39.15625 29.25 43.1875 25.515625 
Q 47.21875 21.78125 47.21875 15.09375 
Q 47.21875 7.46875 41.1875 3.015625 
Q 35.15625 -1.421875 24.609375 -1.421875 
Q 20.21875 -1.421875 15.453125 -0.5625 
Q 10.6875 0.296875 5.421875 2 
L 5.421875 11.28125 
Q 10.40625 8.6875 15.234375 7.390625 
Q 20.0625 6.109375 24.8125 6.109375 
Q 31.15625 6.109375 34.5625 8.28125 
Q 37.984375 10.453125 37.984375 14.40625 
Q 37.984375 18.0625 35.515625 20.015625 
Q 33.0625 21.96875 24.703125 23.78125 
L 21.578125 24.515625 
Q 13.234375 26.265625 9.515625 29.90625 
Q 5.8125 33.546875 5.8125 39.890625 
Q 5.8125 47.609375 11.28125 51.796875 
Q 16.75 56 26.8125 56 
Q 31.78125 56 36.171875 55.265625 
Q 40.578125 54.546875 44.28125 53.078125 
" id="DejaVuSans-73"/>
     </defs>
     <g transform="translate(205.662344 335.860562)scale(0.1 -0.1)">
      <use xlink:href="#DejaVuSans-47"/>
      <use x="77.490234" xlink:href="#DejaVuSans-65"/>
      <use x="139.013672" xlink:href="#DejaVuSans-6e"/>
      <use x="202.392578" xlink:href="#DejaVuSans-65"/>
      <use x="263.916016" xlink:href="#DejaVuSans-72"/>
      <use x="305.029297" xlink:href="#DejaVuSans-61"/>
      <use x="366.308594" xlink:href="#DejaVuSans-74"/>
      <use x="405.517578" xlink:href="#DejaVuSans-69"/>
      <use x="433.300781" xlink:href="#DejaVuSans-6f"/>
      <use x="494.482422" xlink:href="#DejaVuSans-6e"/>
      <use x="557.861328" xlink:href="#DejaVuSans-73"/>
     </g>
    </g>
   </g>
   <g id="matplotlib.axis_2">
    <g id="ytick_1">
     <g id="line2d_13">
      <path clip-path="url(#p5fd1f5817c)" d="M 57.6 264.429863 
L 414.72 264.429863 
" style="fill:none;stroke:#b0b0b0;stroke-linecap:square;stroke-width:0.8;"/>
     </g>
     <g id="line2d_14">
      <defs>
       <path d="M 0 0 
L -3.5 0 
" id="m5abb9c3b20" style="stroke:#000000;stroke-width:0.8;"/>
      </defs>
      <g>
       <use style="stroke:#000000;stroke-width:0.8;" x="57.6" xlink:href="#m5abb9c3b20" y="264.429863"/>
      </g>
     </g>
     <g id="text_8">
      <!-- −240 -->
      <defs>
       <path d="M 10.59375 35.5 
L 73.1875 35.5 
L 73.1875 27.203125 
L 10.59375 27.203125 
z
" id="DejaVuSans-2212"/>
      </defs>
      <g transform="translate(23.132812 268.229082)scale(0.1 -0.1)">
       <use xlink:href="#DejaVuSans-2212"/>
       <use x="83.789062" xlink:href="#DejaVuSans-32"/>
       <use x="147.412109" xlink:href="#DejaVuSans-34"/>
       <use x="211.035156" xlink:href="#DejaVuSans-30"/>
      </g>
     </g>
    </g>
    <g id="ytick_2">
     <g id="line2d_15">
      <path clip-path="url(#p5fd1f5817c)" d="M 57.6 220.01366 
L 414.72 220.01366 
" style="fill:none;stroke:#b0b0b0;stroke-linecap:square;stroke-width:0.8;"/>
     </g>
     <g id="line2d_16">
      <g>
       <use style="stroke:#000000;stroke-width:0.8;" x="57.6" xlink:href="#m5abb9c3b20" y="220.01366"/>
      </g>
     </g>
     <g id="text_9">
      <!-- −220 -->
      <g transform="translate(23.132812 223.812879)scale(0.1 -0.1)">
       <use xlink:href="#DejaVuSans-2212"/>
       <use x="83.789062" xlink:href="#DejaVuSans-32"/>
       <use x="147.412109" xlink:href="#DejaVuSans-32"/>
       <use x="211.035156" xlink:href="#DejaVuSans-30"/>
      </g>
     </g>
    </g>
    <g id="ytick_3">
     <g id="line2d_17">
      <path clip-path="url(#p5fd1f5817c)" d="M 57.6 175.597457 
L 414.72 175.597457 
" style="fill:none;stroke:#b0b0b0;stroke-linecap:square;stroke-width:0.8;"/>
     </g>
     <g id="line2d_18">
      <g>
       <use style="stroke:#000000;stroke-width:0.8;" x="57.6" xlink:href="#m5abb9c3b20" y="175.597457"/>
      </g>
     </g>
     <g id="text_10">
      <!-- −200 -->
      <g transform="translate(23.132812 179.396676)scale(0.1 -0.1)">
       <use xlink:href="#DejaVuSans-2212"/>
       <use x="83.789062" xlink:href="#DejaVuSans-32"/>
       <use x="147.412109" xlink:href="#DejaVuSans-30"/>
       <use x="211.035156" xlink:href="#DejaVuSans-30"/>
      </g>
     </g>
    </g>
    <g id="ytick_4">
     <g id="line2d_19">
      <path clip-path="url(#p5fd1f5817c)" d="M 57.6 131.181254 
L 414.72 131.181254 
" style="fill:none;stroke:#b0b0b0;stroke-linecap:square;stroke-width:0.8;"/>
     </g>
     <g id="line2d_20">
      <g>
       <use style="stroke:#000000;stroke-width:0.8;" x="57.6" xlink:href="#m5abb9c3b20" y="131.181254"/>
      </g>
     </g>
     <g id="text_11">
      <!-- −180 -->
      <defs>
       <path d="M 31.78125 34.625 
Q 24.75 34.625 20.71875 30.859375 
Q 16.703125 27.09375 16.703125 20.515625 
Q 16.703125 13.921875 20.71875 10.15625 
Q 24.75 6.390625 31.78125 6.390625 
Q 38.8125 6.390625 42.859375 10.171875 
Q 46.921875 13.96875 46.921875 20.515625 
Q 46.921875 27.09375 42.890625 30.859375 
Q 38.875 34.625 31.78125 34.625 
M 21.921875 38.8125 
Q 15.578125 40.375 12.03125 44.71875 
Q 8.5 49.078125 8.5 55.328125 
Q 8.5 64.0625 14.71875 69.140625 
Q 20.953125 74.21875 31.78125 74.21875 
Q 42.671875 74.21875 48.875 69.140625 
Q 55.078125 64.0625 55.078125 55.328125 
Q 55.078125 49.078125 51.53125 44.71875 
Q 48 40.375 41.703125 38.8125 
Q 48.828125 37.15625 52.796875 32.3125 
Q 56.78125 27.484375 56.78125 20.515625 
Q 56.78125 9.90625 50.3125 4.234375 
Q 43.84375 -1.421875 31.78125 -1.421875 
Q 19.734375 -1.421875 13.25 4.234375 
Q 6.78125 9.90625 6.78125 20.515625 
Q 6.78125 27.484375 10.78125 32.3125 
Q 14.796875 37.15625 21.921875 38.8125 
M 18.3125 54.390625 
Q 18.3125 48.734375 21.84375 45.5625 
Q 25.390625 42.390625 31.78125 42.390625 
Q 38.140625 42.390625 41.71875 45.5625 
Q 45.3125 48.734375 45.3125 54.390625 
Q 45.3125 60.0625 41.71875 63.234375 
Q 38.140625 66.40625 31.78125 66.40625 
Q 25.390625 66.40625 21.84375 63.234375 
Q 18.3125 60.0625 18.3125 54.390625 
" id="DejaVuSans-38"/>
      </defs>
      <g transform="translate(23.132812 134.980473)scale(0.1 -0.1)">
       <use xlink:href="#DejaVuSans-2212"/>
       <use x="83.789062" xlink:href="#DejaVuSans-31"/>
       <use x="147.412109" xlink:href="#DejaVuSans-38"/>
       <use x="211.035156" xlink:href="#DejaVuSans-30"/>
      </g>
     </g>
    </g>
    <g id="ytick_5">
     <g id="line2d_21">
      <path clip-path="url(#p5fd1f5817c)" d="M 57.6 86.765052 
L 414.72 86.765052 
" style="fill:none;stroke:#b0b0b0;stroke-linecap:square;stroke-width:0.8;"/>
     </g>
     <g id="line2d_22">
      <g>
       <use style="stroke:#000000;stroke-width:0.8;" x="57.6" xlink:href="#m5abb9c3b20" y="86.765052"/>
      </g>
     </g>
     <g id="text_12">
      <!-- −160 -->
      <defs>
       <path d="M 33.015625 40.375 
Q 26.375 40.375 22.484375 35.828125 
Q 18.609375 31.296875 18.609375 23.390625 
Q 18.609375 15.53125 22.484375 10.953125 
Q 26.375 6.390625 33.015625 6.390625 
Q 39.65625 6.390625 43.53125 10.953125 
Q 47.40625 15.53125 47.40625 23.390625 
Q 47.40625 31.296875 43.53125 35.828125 
Q 39.65625 40.375 33.015625 40.375 
M 52.59375 71.296875 
L 52.59375 62.3125 
Q 48.875 64.0625 45.09375 64.984375 
Q 41.3125 65.921875 37.59375 65.921875 
Q 27.828125 65.921875 22.671875 59.328125 
Q 17.53125 52.734375 16.796875 39.40625 
Q 19.671875 43.65625 24.015625 45.921875 
Q 28.375 48.1875 33.59375 48.1875 
Q 44.578125 48.1875 50.953125 41.515625 
Q 57.328125 34.859375 57.328125 23.390625 
Q 57.328125 12.15625 50.6875 5.359375 
Q 44.046875 -1.421875 33.015625 -1.421875 
Q 20.359375 -1.421875 13.671875 8.265625 
Q 6.984375 17.96875 6.984375 36.375 
Q 6.984375 53.65625 15.1875 63.9375 
Q 23.390625 74.21875 37.203125 74.21875 
Q 40.921875 74.21875 44.703125 73.484375 
Q 48.484375 72.75 52.59375 71.296875 
" id="DejaVuSans-36"/>
      </defs>
      <g transform="translate(23.132812 90.56427)scale(0.1 -0.1)">
       <use xlink:href="#DejaVuSans-2212"/>
       <use x="83.789062" xlink:href="#DejaVuSans-31"/>
       <use x="147.412109" xlink:href="#DejaVuSans-36"/>
       <use x="211.035156" xlink:href="#DejaVuSans-30"/>
      </g>
     </g>
    </g>
    <g id="ytick_6">
     <g id="line2d_23">
      <path clip-path="url(#p5fd1f5817c)" d="M 57.6 42.348849 
L 414.72 42.348849 
" style="fill:none;stroke:#b0b0b0;stroke-linecap:square;stroke-width:0.8;"/>
     </g>
     <g id="line2d_24">
      <g>
       <use style="stroke:#000000;stroke-width:0.8;" x="57.6" xlink:href="#m5abb9c3b20" y="42.348849"/>
      </g>
     </g>
     <g id="text_13">
      <!-- −140 -->
      <g transform="translate(23.132812 46.148067)scale(0.1 -0.1)">
       <use xlink:href="#DejaVuSans-2212"/>
       <use x="83.789062" xlink:href="#DejaVuSans-31"/>
       <use x="147.412109" xlink:href="#DejaVuSans-34"/>
       <use x="211.035156" xlink:href="#DejaVuSans-30"/>
      </g>
     </g>
    </g>
    <g id="text_14">
     <!-- Fitness -->
     <defs>
      <path d="M 9.8125 72.90625 
L 51.703125 72.90625 
L 51.703125 64.59375 
L 19.671875 64.59375 
L 19.671875 43.109375 
L 48.578125 43.109375 
L 48.578125 34.8125 
L 19.671875 34.8125 
L 19.671875 0 
L 9.8125 0 
z
" id="DejaVuSans-46"/>
     </defs>
     <g transform="translate(17.053125 192.202219)rotate(-90)scale(0.1 -0.1)">
      <use xlink:href="#DejaVuSans-46"/>
      <use x="57.410156" xlink:href="#DejaVuSans-69"/>
      <use x="85.193359" xlink:href="#DejaVuSans-74"/>
      <use x="124.402344" xlink:href="#DejaVuSans-6e"/>
      <use x="187.78125" xlink:href="#DejaVuSans-65"/>
      <use x="249.304688" xlink:href="#DejaVuSans-73"/>
      <use x="301.404297" xlink:href="#DejaVuSans-73"/>
     </g>
    </g>
   </g>
   <g id="line2d_25">
    <path clip-path="url(#p5fd1f5817c)" d="M 73.832727 295.488 
L 74.483338 257.380884 
L 75.133948 254.003093 
L 75.784558 257.827978 
L 76.435169 262.794817 
L 77.085779 259.829777 
L 77.736389 264.626331 
L 78.386999 273.841815 
L 79.03761 265.513807 
L 79.68822 264.641071 
L 80.33883 269.209899 
L 80.989441 259.300461 
L 81.640051 265.125995 
L 82.290661 257.268852 
L 82.941272 257.765164 
L 83.591882 263.308876 
L 84.242492 266.779243 
L 84.893103 267.108127 
L 85.543713 263.335794 
L 86.194323 264.982504 
L 86.844934 262.278031 
L 87.495544 264.591715 
L 88.146154 262.619609 
L 88.796764 259.068503 
L 89.447375 269.478243 
L 90.097985 265.684842 
L 90.748595 266.956773 
L 91.399206 262.291283 
L 92.049816 263.138415 
L 92.700426 261.790075 
L 93.351037 259.924046 
L 94.001647 257.449748 
L 94.652257 271.760544 
L 95.302868 261.750499 
L 95.953478 266.130971 
L 96.604088 260.021398 
L 97.254698 266.50868 
L 97.905309 264.307304 
L 98.555919 266.152818 
L 99.206529 262.968804 
L 99.85714 269.09122 
L 100.50775 268.19816 
L 101.15836 260.16435 
L 101.808971 268.701475 
L 102.459581 263.823245 
L 103.110191 270.095346 
L 103.760802 267.684572 
L 104.411412 258.646222 
L 105.062022 260.590393 
L 106.363243 265.500954 
L 107.013853 264.485364 
L 107.664463 265.80317 
L 108.315074 259.553292 
L 108.965684 261.76644 
L 109.616294 261.455855 
L 110.266905 258.100354 
L 110.917515 259.888782 
L 111.568125 254.417532 
L 112.869346 257.159811 
L 113.519956 256.069683 
L 114.170567 253.604171 
L 114.821177 255.264891 
L 116.773008 251.830104 
L 117.423618 248.22015 
L 118.074228 257.463672 
L 118.724839 250.457401 
L 119.375449 249.170214 
L 120.026059 256.782175 
L 121.32728 251.281941 
L 121.97789 250.004649 
L 122.628501 250.133922 
L 123.279111 252.918872 
L 123.929721 248.982785 
L 124.580332 252.539502 
L 125.230942 252.507565 
L 125.881552 249.894482 
L 126.532163 252.670885 
L 127.182773 249.112904 
L 127.833383 253.665719 
L 128.483993 252.784703 
L 129.134604 254.853717 
L 129.785214 251.771914 
L 130.435824 252.450518 
L 131.086435 254.416988 
L 131.737045 252.933713 
L 132.387655 254.068466 
L 133.038266 252.881657 
L 133.688876 252.5221 
L 134.339486 250.981021 
L 134.990097 255.665101 
L 135.640707 253.175805 
L 136.291317 256.121439 
L 136.941927 251.886343 
L 137.592538 253.621152 
L 138.243148 250.153944 
L 138.893758 249.882967 
L 139.544369 253.96037 
L 140.194979 252.882173 
L 140.845589 250.634005 
L 141.4962 253.623948 
L 142.14681 255.051242 
L 142.79742 254.549964 
L 143.448031 251.028284 
L 144.098641 257.981301 
L 144.749251 252.275363 
L 145.399862 254.284374 
L 146.050472 251.965441 
L 146.701082 253.90437 
L 147.351692 251.400235 
L 148.002303 255.326746 
L 148.652913 255.50807 
L 149.303523 250.000838 
L 149.954134 250.568734 
L 150.604744 253.716843 
L 151.255354 250.621432 
L 151.905965 249.340334 
L 152.556575 251.406281 
L 153.207185 248.749569 
L 153.857796 248.205896 
L 154.508406 252.456434 
L 155.159016 249.345466 
L 155.809627 248.730245 
L 156.460237 247.697834 
L 157.110847 248.547676 
L 157.761457 250.430122 
L 158.412068 251.307115 
L 159.062678 251.966038 
L 159.713288 249.508557 
L 160.363899 246.382667 
L 161.665119 252.246193 
L 162.31573 246.324434 
L 162.96634 250.532139 
L 163.61695 249.27316 
L 164.267561 248.499027 
L 164.918171 246.590358 
L 165.568781 248.656293 
L 166.219392 244.816801 
L 166.870002 245.672921 
L 167.520612 249.141594 
L 168.171222 251.412506 
L 168.821833 254.602566 
L 169.472443 247.747682 
L 170.123053 252.145839 
L 170.773664 251.163279 
L 171.424274 255.55276 
L 172.074884 251.479306 
L 172.725495 255.6565 
L 173.376105 255.33044 
L 174.026715 254.344014 
L 174.677326 258.553693 
L 175.327936 254.390017 
L 175.978546 258.988863 
L 176.629156 249.355652 
L 177.279767 258.252913 
L 177.930377 264.936981 
L 178.580987 257.713642 
L 179.231598 254.097821 
L 179.882208 244.000293 
L 180.532818 249.488138 
L 181.183429 253.072646 
L 181.834039 251.223551 
L 182.484649 250.272264 
L 183.13526 250.208582 
L 183.78587 253.556799 
L 184.43648 248.964696 
L 185.087091 249.460264 
L 185.737701 246.284392 
L 186.388311 250.585652 
L 187.038921 249.02017 
L 187.689532 253.401062 
L 188.340142 247.142925 
L 188.990752 249.489722 
L 189.641363 245.77305 
L 190.291973 250.075591 
L 190.942583 248.67884 
L 191.593194 252.846537 
L 192.243804 253.680567 
L 192.894414 249.27957 
L 193.545025 252.872012 
L 194.195635 250.075842 
L 194.846245 249.593633 
L 195.496856 248.082371 
L 196.147466 247.041269 
L 196.798076 250.516564 
L 197.448686 252.314756 
L 198.099297 249.036099 
L 198.749907 258.666959 
L 199.400517 255.281807 
L 200.051128 249.688022 
L 200.701738 254.686058 
L 201.352348 252.90906 
L 202.002959 255.200486 
L 202.653569 251.50096 
L 203.95479 252.225325 
L 204.6054 248.150988 
L 205.25601 253.893581 
L 205.906621 245.788345 
L 206.557231 247.535342 
L 207.207841 243.648145 
L 207.858451 245.035192 
L 208.509062 249.472047 
L 209.159672 252.520022 
L 209.810282 250.990164 
L 210.460893 244.711737 
L 211.111503 250.268853 
L 211.762113 249.347451 
L 212.412724 247.125745 
L 213.063334 247.270119 
L 213.713944 248.705628 
L 215.015165 244.71083 
L 215.665775 246.909264 
L 216.316385 247.450201 
L 216.966996 248.873802 
L 217.617606 246.144212 
L 218.918827 251.935664 
L 219.569437 249.159611 
L 220.220047 248.306907 
L 220.870658 248.203676 
L 221.521268 246.465738 
L 222.171878 252.905141 
L 222.822489 250.787597 
L 223.473099 250.733165 
L 224.123709 249.027906 
L 224.77432 246.834392 
L 225.42493 251.352499 
L 226.72615 243.524912 
L 227.376761 248.161498 
L 228.027371 245.697045 
L 228.677981 249.663988 
L 229.328592 246.760231 
L 229.979202 247.628714 
L 230.629812 249.116789 
L 231.280423 245.005588 
L 231.931033 246.701401 
L 232.581643 247.861816 
L 233.232254 246.36281 
L 233.882864 245.910086 
L 234.533474 244.546174 
L 235.184085 253.22574 
L 235.834695 252.829603 
L 236.485305 244.602416 
L 237.135915 246.599424 
L 237.786526 249.193344 
L 238.437136 250.999223 
L 239.087746 247.988535 
L 239.738357 255.198548 
L 240.388967 253.407375 
L 241.039577 253.084985 
L 241.690188 248.151816 
L 242.340798 248.878449 
L 242.991408 242.008583 
L 243.642019 250.514519 
L 244.292629 252.794292 
L 244.943239 251.247855 
L 245.59385 244.457684 
L 246.24446 248.396379 
L 246.89507 247.922961 
L 247.54568 248.589936 
L 248.196291 251.024663 
L 248.846901 252.166835 
L 249.497511 258.603064 
L 250.148122 245.695978 
L 250.798732 251.804514 
L 251.449342 248.694086 
L 252.099953 251.311709 
L 252.750563 248.925897 
L 253.401173 251.034896 
L 254.051784 251.427445 
L 254.702394 251.518859 
L 255.353004 247.901273 
L 256.003615 246.094256 
L 256.654225 246.478313 
L 257.304835 255.112292 
L 257.955445 251.400759 
L 258.606056 249.599722 
L 259.256666 250.408522 
L 259.907276 249.741345 
L 260.557887 252.001448 
L 261.208497 252.790321 
L 261.859107 247.7915 
L 262.509718 252.317958 
L 263.160328 248.189231 
L 263.810938 247.490906 
L 264.461549 249.566489 
L 265.112159 254.647413 
L 265.762769 252.042736 
L 266.413379 255.399691 
L 267.7146 253.296906 
L 268.36521 256.679877 
L 269.015821 256.618206 
L 269.666431 248.870311 
L 270.317041 250.491807 
L 270.967652 244.187964 
L 271.618262 246.163678 
L 272.268872 247.606751 
L 272.919483 249.590093 
L 273.570093 246.809099 
L 274.220703 248.638821 
L 274.871314 247.457926 
L 275.521924 247.489591 
L 276.172534 245.911517 
L 276.823144 245.616712 
L 277.473755 244.963136 
L 278.124365 245.6225 
L 278.774975 250.334585 
L 279.425586 244.945996 
L 280.076196 247.68144 
L 280.726806 249.386672 
L 281.377417 249.448119 
L 282.028027 244.464891 
L 282.678637 247.937206 
L 283.329248 245.365326 
L 283.979858 243.618383 
L 284.630468 243.063302 
L 285.281079 246.483174 
L 285.931689 246.43954 
L 286.582299 247.688856 
L 287.232909 244.920468 
L 287.88352 244.366063 
L 288.53413 246.363847 
L 289.18474 245.793513 
L 289.835351 244.885432 
L 290.485961 246.756268 
L 291.136571 247.528816 
L 291.787182 250.28622 
L 292.437792 246.940986 
L 293.739013 241.548721 
L 294.389623 245.55322 
L 295.040233 250.331376 
L 295.690844 244.507185 
L 296.341454 247.302721 
L 296.992064 243.141244 
L 297.642674 244.494959 
L 298.293285 244.15047 
L 298.943895 244.90413 
L 299.594505 246.337114 
L 300.245116 243.920169 
L 300.895726 245.174321 
L 301.546336 246.906022 
L 302.196947 249.233647 
L 302.847557 244.754093 
L 303.498167 244.972996 
L 304.148778 245.644515 
L 305.449998 246.534594 
L 306.100608 246.073924 
L 306.751219 243.456899 
L 307.401829 249.918694 
L 308.052439 248.714271 
L 308.70305 244.913335 
L 309.35366 247.688989 
L 310.00427 245.010326 
L 310.654881 249.275612 
L 311.305491 246.07598 
L 311.956101 245.420171 
L 312.606712 244.604951 
L 313.257322 247.0079 
L 313.907932 241.168127 
L 314.558543 246.571361 
L 315.859763 247.500501 
L 316.510373 246.251653 
L 317.160984 246.069026 
L 317.811594 243.886796 
L 318.462204 245.746542 
L 319.112815 241.650471 
L 319.763425 247.039647 
L 320.414035 250.369522 
L 321.064646 247.74199 
L 321.715256 249.208066 
L 322.365866 246.093007 
L 323.016477 244.569875 
L 323.667087 247.264741 
L 324.317697 249.12398 
L 324.968308 244.809761 
L 325.618918 247.095436 
L 326.269528 250.404109 
L 326.920138 246.097549 
L 327.570749 248.107747 
L 328.221359 248.873696 
L 328.871969 248.434585 
L 329.52258 250.277088 
L 330.17319 247.095862 
L 330.8238 247.913931 
L 331.474411 250.074022 
L 332.775631 246.699216 
L 333.426242 249.690855 
L 334.076852 247.681613 
L 334.727462 248.622679 
L 335.378073 251.990305 
L 336.028683 249.722083 
L 336.679293 248.443045 
L 337.329903 247.98555 
L 337.980514 247.285324 
L 338.631124 248.055441 
L 339.281734 248.473268 
L 339.932345 246.583886 
L 340.582955 249.456548 
L 341.233565 249.831311 
L 341.884176 249.85337 
L 342.534786 248.441305 
L 343.185396 249.356679 
L 343.836007 252.915941 
L 344.486617 249.432585 
L 345.137227 248.593086 
L 345.787837 247.105811 
L 346.438448 247.143089 
L 347.089058 244.560719 
L 347.739668 251.115686 
L 348.390279 247.921652 
L 349.040889 250.824751 
L 349.691499 252.04204 
L 350.34211 246.574608 
L 350.99272 250.970935 
L 351.64333 246.049982 
L 352.293941 248.928842 
L 352.944551 251.193451 
L 353.595161 250.962381 
L 354.245772 249.913603 
L 354.896382 247.751845 
L 355.546992 249.132337 
L 356.197602 247.354357 
L 356.848213 243.003408 
L 357.498823 242.519065 
L 358.149433 244.17558 
L 358.800044 242.059756 
L 359.450654 247.152467 
L 360.751875 242.251616 
L 361.402485 242.792712 
L 362.053095 243.940487 
L 363.354316 245.168034 
L 364.004926 247.916717 
L 364.655537 244.785107 
L 365.306147 245.713063 
L 365.956757 244.852034 
L 366.607367 248.368471 
L 367.257978 249.126783 
L 367.908588 243.10206 
L 368.559198 249.139184 
L 369.209809 245.702712 
L 369.860419 248.334261 
L 370.511029 245.253547 
L 371.16164 244.625782 
L 371.81225 244.227732 
L 372.46286 244.894015 
L 373.113471 248.398162 
L 373.764081 243.012679 
L 374.414691 242.653969 
L 375.065302 244.315531 
L 375.715912 240.93162 
L 376.366522 243.08707 
L 377.017132 242.414566 
L 377.667743 241.467919 
L 378.318353 247.028566 
L 378.968963 242.415062 
L 380.270184 246.528866 
L 380.920794 250.45794 
L 381.571405 245.31168 
L 382.222015 246.834752 
L 382.872625 242.250917 
L 383.523236 249.94056 
L 384.173846 248.627231 
L 384.824456 250.810254 
L 385.475066 243.409117 
L 386.125677 245.8679 
L 387.426897 245.872512 
L 388.077508 243.966204 
L 388.728118 245.451625 
L 389.378728 244.223063 
L 390.029339 241.905706 
L 390.679949 245.862629 
L 391.330559 243.200633 
L 391.98117 244.841874 
L 392.63178 244.142191 
L 393.28239 244.320445 
L 393.933001 245.16437 
L 394.583611 240.700791 
L 395.234221 241.455944 
L 395.884831 245.031657 
L 396.535442 242.291373 
L 397.186052 243.486105 
L 397.836662 241.859622 
L 398.487273 245.040476 
L 398.487273 245.040476 
" style="fill:none;stroke:#0000ff;stroke-linecap:square;stroke-width:1.5;"/>
   </g>
   <g id="line2d_26">
    <path clip-path="url(#p5fd1f5817c)" d="M 73.832727 248.46272 
L 74.483338 220.981043 
L 75.133948 219.254445 
L 75.784558 219.892644 
L 76.435169 218.732185 
L 77.085779 219.254251 
L 77.736389 216.881718 
L 78.386999 221.868968 
L 79.03761 218.628217 
L 80.33883 219.93097 
L 80.989441 215.918398 
L 81.640051 221.106035 
L 82.290661 213.886521 
L 82.941272 216.660734 
L 83.591882 218.411515 
L 84.242492 219.485436 
L 84.893103 217.024569 
L 85.543713 219.008156 
L 86.194323 219.715469 
L 86.844934 216.441575 
L 87.495544 217.196057 
L 88.146154 216.659657 
L 88.796764 215.115382 
L 89.447375 215.450851 
L 90.097985 213.653018 
L 90.748595 216.501217 
L 91.399206 213.899414 
L 92.049816 213.623695 
L 92.700426 213.908689 
L 93.351037 212.524078 
L 94.652257 217.412538 
L 95.302868 212.200883 
L 95.953478 215.477281 
L 96.604088 213.271277 
L 97.254698 215.592263 
L 98.555919 215.253108 
L 99.206529 214.531613 
L 99.85714 216.288859 
L 100.50775 215.660126 
L 101.15836 215.773088 
L 101.808971 217.889391 
L 102.459581 214.087496 
L 103.110191 218.476648 
L 103.760802 217.700779 
L 104.411412 215.367192 
L 105.062022 214.406456 
L 105.712633 214.006897 
L 106.363243 216.799415 
L 107.013853 214.263958 
L 107.664463 215.656271 
L 108.315074 214.567311 
L 108.965684 214.412878 
L 109.616294 213.485213 
L 110.917515 213.975967 
L 111.568125 213.735655 
L 112.869346 211.344872 
L 113.519956 211.229502 
L 114.170567 214.313351 
L 114.821177 212.70188 
L 115.471787 212.542645 
L 116.122398 213.113356 
L 116.773008 211.660008 
L 117.423618 212.592754 
L 118.074228 214.637151 
L 118.724839 213.63603 
L 119.375449 212.052535 
L 120.026059 214.309791 
L 120.67667 213.535595 
L 121.32728 211.518609 
L 121.97789 214.860632 
L 122.628501 214.592749 
L 123.279111 213.461197 
L 123.929721 216.152731 
L 124.580332 215.398662 
L 125.230942 213.487782 
L 125.881552 214.471233 
L 126.532163 215.078148 
L 127.182773 214.191558 
L 127.833383 214.450235 
L 128.483993 215.245359 
L 129.134604 211.14908 
L 129.785214 214.529893 
L 130.435824 214.751156 
L 131.086435 214.477731 
L 131.737045 213.747956 
L 132.387655 213.244057 
L 133.038266 212.053438 
L 133.688876 214.105108 
L 134.339486 212.267062 
L 134.990097 214.696828 
L 136.291317 211.425618 
L 136.941927 214.208246 
L 137.592538 211.126844 
L 138.243148 213.29474 
L 138.893758 213.386001 
L 139.544369 214.297777 
L 140.194979 212.118107 
L 140.845589 213.161619 
L 141.4962 216.274052 
L 142.14681 211.119582 
L 142.79742 215.220361 
L 143.448031 212.648468 
L 144.098641 212.894874 
L 144.749251 214.88394 
L 145.399862 214.232385 
L 146.050472 211.511504 
L 146.701082 213.182765 
L 147.351692 210.758866 
L 148.002303 210.760116 
L 148.652913 212.366331 
L 149.303523 214.789938 
L 149.954134 213.966874 
L 151.255354 211.628269 
L 151.905965 211.877255 
L 152.556575 212.706486 
L 153.207185 212.839954 
L 153.857796 212.811029 
L 154.508406 213.905202 
L 155.159016 212.95765 
L 155.809627 212.371537 
L 156.460237 214.363464 
L 157.110847 212.387497 
L 157.761457 211.278133 
L 158.412068 216.525268 
L 159.062678 213.668008 
L 159.713288 214.012316 
L 160.363899 213.720212 
L 161.014509 212.632562 
L 161.665119 213.352798 
L 162.31573 213.813013 
L 162.96634 213.365784 
L 163.61695 215.559488 
L 164.267561 213.231775 
L 164.918171 216.799589 
L 165.568781 216.614518 
L 166.219392 214.056246 
L 166.870002 215.892664 
L 167.520612 213.783532 
L 168.171222 212.25693 
L 168.821833 213.080354 
L 169.472443 214.731057 
L 170.123053 212.953748 
L 170.773664 210.66251 
L 171.424274 213.993025 
L 172.074884 214.596135 
L 172.725495 212.155709 
L 173.376105 214.060885 
L 174.026715 214.085894 
L 174.677326 213.848012 
L 175.327936 211.628621 
L 175.978546 212.144899 
L 176.629156 213.915571 
L 177.279767 213.383245 
L 177.930377 213.398021 
L 178.580987 211.15271 
L 179.231598 214.27349 
L 179.882208 216.033906 
L 180.532818 213.936843 
L 181.183429 213.428532 
L 181.834039 211.007725 
L 183.13526 215.348507 
L 183.78587 208.712831 
L 184.43648 213.395697 
L 185.087091 213.335494 
L 185.737701 212.893331 
L 186.388311 213.734051 
L 187.038921 213.569832 
L 187.689532 215.020971 
L 188.340142 213.662485 
L 188.990752 215.023548 
L 189.641363 211.377381 
L 190.291973 215.220186 
L 190.942583 215.434864 
L 192.243804 213.01136 
L 192.894414 213.510904 
L 193.545025 214.423264 
L 194.846245 214.253911 
L 195.496856 213.219957 
L 196.147466 213.714299 
L 196.798076 212.965781 
L 198.099297 217.472949 
L 199.400517 213.419981 
L 200.051128 212.714853 
L 200.701738 212.395932 
L 201.352348 212.337544 
L 202.002959 212.726735 
L 202.653569 213.906564 
L 203.95479 212.595174 
L 204.6054 217.780018 
L 205.25601 215.86232 
L 205.906621 214.944087 
L 206.557231 218.928952 
L 207.207841 218.431439 
L 207.858451 215.422955 
L 208.509062 215.372369 
L 209.159672 212.035509 
L 209.810282 214.600913 
L 210.460893 216.18264 
L 211.111503 213.512344 
L 211.762113 214.922678 
L 212.412724 213.707334 
L 213.713944 217.638773 
L 214.364555 213.918372 
L 215.015165 215.379568 
L 215.665775 215.404474 
L 216.316385 213.379171 
L 216.966996 214.636034 
L 217.617606 214.826348 
L 218.268216 212.134523 
L 218.918827 215.818956 
L 219.569437 215.209965 
L 220.220047 214.19326 
L 220.870658 211.773417 
L 221.521268 214.64003 
L 222.171878 212.002848 
L 222.822489 212.893861 
L 223.473099 217.589474 
L 224.123709 212.766886 
L 224.77432 214.184214 
L 225.42493 214.703529 
L 226.07554 214.421483 
L 226.72615 214.69033 
L 227.376761 214.700395 
L 228.027371 215.1357 
L 228.677981 214.371256 
L 229.328592 214.396902 
L 229.979202 211.689477 
L 230.629812 216.516345 
L 231.280423 214.989739 
L 231.931033 215.538744 
L 232.581643 214.223123 
L 233.232254 214.011863 
L 233.882864 217.915653 
L 234.533474 217.291914 
L 235.184085 215.142086 
L 236.485305 215.405901 
L 237.135915 214.571632 
L 237.786526 214.039138 
L 238.437136 212.386466 
L 239.087746 217.069593 
L 239.738357 210.814005 
L 240.388967 213.911386 
L 241.690188 210.367026 
L 242.340798 213.9481 
L 242.991408 218.321655 
L 243.642019 214.066447 
L 244.292629 212.791192 
L 244.943239 214.82071 
L 245.59385 215.803376 
L 246.24446 214.357068 
L 246.89507 215.615774 
L 247.54568 216.389969 
L 248.196291 212.265174 
L 248.846901 212.295072 
L 250.148122 213.413004 
L 251.449342 210.589273 
L 252.099953 211.315131 
L 252.750563 213.480818 
L 253.401173 214.891155 
L 254.051784 213.130904 
L 254.702394 213.139801 
L 256.003615 214.236207 
L 256.654225 213.520751 
L 257.304835 214.978739 
L 257.955445 214.409338 
L 258.606056 211.495941 
L 259.256666 213.491488 
L 259.907276 212.712058 
L 260.557887 211.222551 
L 261.208497 213.547899 
L 261.859107 211.303539 
L 262.509718 210.359867 
L 263.160328 216.046194 
L 264.461549 213.911701 
L 265.762769 212.832147 
L 266.413379 213.006033 
L 267.06399 213.706726 
L 267.7146 211.104168 
L 268.36521 213.793774 
L 269.015821 213.590431 
L 269.666431 210.289276 
L 270.317041 213.674099 
L 270.967652 215.596561 
L 271.618262 216.923078 
L 272.268872 217.615108 
L 272.919483 214.193451 
L 273.570093 215.555895 
L 274.220703 213.17426 
L 274.871314 216.886331 
L 275.521924 215.453575 
L 276.172534 215.656629 
L 276.823144 218.401025 
L 277.473755 214.5959 
L 278.124365 216.259262 
L 278.774975 214.667956 
L 279.425586 216.781142 
L 280.076196 214.408322 
L 280.726806 216.999837 
L 281.377417 217.552137 
L 282.028027 217.358418 
L 282.678637 212.469732 
L 283.329248 216.989467 
L 283.979858 213.018668 
L 284.630468 216.831301 
L 285.281079 218.578458 
L 285.931689 214.780251 
L 286.582299 215.626573 
L 287.232909 216.931675 
L 287.88352 215.620492 
L 288.53413 217.248543 
L 289.18474 215.788876 
L 289.835351 217.948077 
L 290.485961 217.25352 
L 291.136571 214.064603 
L 291.787182 212.070411 
L 292.437792 214.306953 
L 293.088402 212.152921 
L 293.739013 215.675 
L 294.389623 215.026552 
L 295.040233 213.514425 
L 295.690844 214.236352 
L 296.341454 213.522952 
L 297.642674 218.857391 
L 298.293285 217.186557 
L 298.943895 214.429124 
L 299.594505 215.637165 
L 300.245116 217.518978 
L 300.895726 216.869397 
L 301.546336 213.82472 
L 302.196947 215.477885 
L 302.847557 219.743336 
L 304.148778 214.459299 
L 304.799388 216.814412 
L 305.449998 215.173927 
L 306.100608 213.186416 
L 306.751219 217.934726 
L 307.401829 213.924953 
L 308.052439 214.722164 
L 308.70305 218.500997 
L 309.35366 212.671716 
L 310.00427 214.387685 
L 310.654881 212.416386 
L 311.305491 213.615483 
L 311.956101 216.681724 
L 312.606712 214.392197 
L 313.257322 213.351342 
L 313.907932 217.917133 
L 314.558543 218.454666 
L 315.209153 213.093163 
L 315.859763 214.108155 
L 316.510373 213.464796 
L 317.160984 213.107711 
L 317.811594 215.782774 
L 318.462204 214.694517 
L 319.112815 218.608392 
L 319.763425 213.63365 
L 320.414035 214.515895 
L 321.064646 215.208104 
L 321.715256 215.444108 
L 322.365866 215.368956 
L 323.016477 217.270437 
L 323.667087 214.409397 
L 324.317697 214.249376 
L 324.968308 213.806523 
L 325.618918 218.676743 
L 326.269528 213.745033 
L 326.920138 215.895297 
L 327.570749 216.121718 
L 328.221359 214.875737 
L 328.871969 213.1651 
L 329.52258 213.949824 
L 330.17319 212.431575 
L 330.8238 212.382611 
L 331.474411 215.594922 
L 332.125021 218.110311 
L 332.775631 215.140135 
L 333.426242 214.881253 
L 334.076852 217.133646 
L 334.727462 214.09037 
L 335.378073 212.447492 
L 336.028683 211.283078 
L 336.679293 213.326954 
L 337.329903 214.691761 
L 337.980514 213.572803 
L 338.631124 215.224595 
L 339.281734 215.537044 
L 339.932345 213.056732 
L 340.582955 213.530258 
L 341.233565 213.393523 
L 341.884176 214.577086 
L 342.534786 214.901626 
L 343.185396 213.237549 
L 343.836007 210.436483 
L 344.486617 214.477052 
L 345.137227 217.753961 
L 345.787837 213.863849 
L 347.089058 212.780817 
L 347.739668 214.060297 
L 348.390279 213.979586 
L 349.691499 214.182931 
L 350.34211 216.541634 
L 350.99272 213.02467 
L 351.64333 212.16378 
L 352.293941 212.764363 
L 352.944551 217.371785 
L 353.595161 215.287519 
L 354.245772 212.077567 
L 354.896382 213.944583 
L 355.546992 213.242733 
L 356.197602 216.598554 
L 356.848213 215.860438 
L 357.498823 218.656716 
L 358.149433 216.401388 
L 358.800044 218.164702 
L 359.450654 216.170268 
L 360.101264 218.382602 
L 360.751875 222.475166 
L 361.402485 218.015806 
L 362.703706 215.806819 
L 363.354316 215.210228 
L 364.004926 213.184047 
L 364.655537 216.136594 
L 365.306147 214.105483 
L 365.956757 214.213173 
L 366.607367 213.394827 
L 367.257978 215.475759 
L 367.908588 219.858373 
L 368.559198 216.02472 
L 369.209809 213.791413 
L 369.860419 215.325408 
L 370.511029 215.410182 
L 371.16164 216.664605 
L 371.81225 219.412368 
L 372.46286 215.177365 
L 373.113471 214.183428 
L 373.764081 218.694567 
L 374.414691 216.784338 
L 375.065302 216.267509 
L 375.715912 218.109689 
L 376.366522 215.283094 
L 377.017132 216.544832 
L 377.667743 218.520344 
L 378.318353 218.155576 
L 378.968963 221.355362 
L 379.619574 216.018644 
L 380.270184 215.252736 
L 381.571405 213.056975 
L 382.222015 217.146443 
L 382.872625 215.343724 
L 383.523236 215.048034 
L 384.173846 215.217122 
L 384.824456 213.567621 
L 385.475066 215.493916 
L 386.125677 213.821086 
L 386.776287 216.903253 
L 387.426897 216.31559 
L 388.077508 214.513162 
L 388.728118 215.415329 
L 389.378728 214.454567 
L 390.029339 214.988979 
L 390.679949 216.248344 
L 391.330559 216.844416 
L 391.98117 215.704435 
L 392.63178 217.132748 
L 393.28239 219.447896 
L 393.933001 216.509246 
L 394.583611 217.897828 
L 395.234221 218.490923 
L 395.884831 213.560919 
L 396.535442 215.438137 
L 397.186052 216.118734 
L 397.836662 218.21259 
L 398.487273 215.06975 
L 398.487273 215.06975 
" style="fill:none;stroke:#008000;stroke-dasharray:9.6,2.4,1.6,2.4;stroke-dashoffset:0;stroke-width:1.5;"/>
   </g>
   <g id="line2d_27">
    <path clip-path="url(#p5fd1f5817c)" d="M 73.832727 210.572714 
L 75.133948 210.504937 
L 75.784558 189.234128 
L 76.435169 210.662462 
L 77.085779 210.37129 
L 77.736389 112.601087 
L 78.386999 135.040232 
L 79.03761 53.568 
L 79.68822 180.006217 
L 80.33883 176.733628 
L 80.989441 210.407652 
L 81.640051 210.42967 
L 82.290661 210.787455 
L 82.941272 210.856372 
L 83.591882 210.508265 
L 84.242492 210.872351 
L 84.893103 210.718185 
L 85.543713 210.383769 
L 86.194323 211.207094 
L 86.844934 210.937689 
L 87.495544 210.856239 
L 88.146154 210.381231 
L 88.796764 210.628946 
L 89.447375 211.035813 
L 90.097985 210.546058 
L 90.748595 210.487945 
L 91.399206 211.251274 
L 92.700426 210.591288 
L 93.351037 210.475462 
L 94.001647 210.514874 
L 94.652257 210.862214 
L 95.302868 210.407111 
L 95.953478 210.561334 
L 97.254698 210.392107 
L 99.85714 210.642372 
L 101.15836 210.540491 
L 101.808971 211.140275 
L 102.459581 210.652836 
L 103.110191 210.442982 
L 103.760802 213.325221 
L 104.411412 211.112587 
L 105.062022 210.486014 
L 105.712633 211.165285 
L 106.363243 210.602749 
L 107.013853 210.597517 
L 107.664463 211.295856 
L 108.315074 210.38582 
L 108.965684 210.526097 
L 109.616294 210.371745 
L 110.917515 210.94123 
L 111.568125 210.52738 
L 112.218736 210.431418 
L 112.869346 210.610999 
L 114.821177 210.477985 
L 115.471787 211.023783 
L 116.122398 210.605553 
L 116.773008 210.690807 
L 118.724839 210.543504 
L 119.375449 210.656197 
L 120.026059 211.319668 
L 120.67667 210.496022 
L 121.32728 210.789666 
L 121.97789 210.747226 
L 122.628501 210.568013 
L 123.279111 210.70844 
L 123.929721 210.501615 
L 124.580332 210.881751 
L 125.230942 211.109965 
L 125.881552 210.562885 
L 126.532163 210.737362 
L 127.182773 210.47475 
L 128.483993 211.024747 
L 129.134604 210.465892 
L 129.785214 210.988022 
L 130.435824 211.961549 
L 131.086435 211.267962 
L 131.737045 210.83939 
L 132.387655 210.594027 
L 133.688876 210.388422 
L 134.339486 210.555921 
L 134.990097 211.212104 
L 135.640707 210.725082 
L 136.291317 210.478268 
L 136.941927 210.434652 
L 137.592538 210.71918 
L 138.243148 210.381168 
L 138.893758 210.530751 
L 139.544369 211.066861 
L 140.194979 210.507449 
L 140.845589 211.056641 
L 141.4962 211.188622 
L 142.14681 210.559265 
L 142.79742 210.712394 
L 144.098641 211.268507 
L 144.749251 210.667986 
L 145.399862 210.869653 
L 146.050472 210.448585 
L 147.351692 210.39618 
L 148.002303 210.558846 
L 149.303523 210.454562 
L 149.954134 210.409694 
L 150.604744 210.593757 
L 151.255354 210.979369 
L 151.905965 210.531912 
L 152.556575 210.714241 
L 153.207185 210.408311 
L 153.857796 211.044588 
L 154.508406 210.435579 
L 155.159016 211.057844 
L 155.809627 210.982399 
L 156.460237 210.521326 
L 157.110847 210.388845 
L 158.412068 210.49694 
L 159.713288 211.422946 
L 160.363899 210.687126 
L 161.014509 210.679348 
L 161.665119 211.210837 
L 162.31573 210.707398 
L 164.267561 210.438607 
L 166.219392 210.792833 
L 166.870002 211.122378 
L 167.520612 210.633889 
L 169.472443 210.495708 
L 170.123053 210.653893 
L 170.773664 211.044853 
L 171.424274 210.886419 
L 172.074884 210.578857 
L 172.725495 210.905559 
L 173.376105 212.079294 
L 174.026715 210.687491 
L 174.677326 210.374615 
L 175.327936 210.646539 
L 176.629156 210.879103 
L 177.930377 210.39008 
L 178.580987 210.455507 
L 179.231598 211.11971 
L 179.882208 210.436237 
L 180.532818 210.410792 
L 181.183429 210.75594 
L 181.834039 210.607644 
L 182.484649 210.827544 
L 183.13526 210.846651 
L 184.43648 210.480186 
L 185.087091 210.689086 
L 185.737701 210.452601 
L 186.388311 210.957249 
L 187.038921 210.440315 
L 187.689532 211.221818 
L 188.340142 210.800859 
L 188.990752 211.512413 
L 189.641363 210.473777 
L 190.291973 210.554677 
L 190.942583 210.517417 
L 191.593194 211.195009 
L 192.243804 211.286358 
L 192.894414 210.580044 
L 193.545025 210.465329 
L 194.195635 210.487855 
L 194.846245 210.759968 
L 196.798076 210.804407 
L 197.448686 210.574605 
L 198.099297 210.871036 
L 198.749907 210.974623 
L 199.400517 210.418226 
L 200.051128 210.474627 
L 200.701738 210.926841 
L 202.653569 210.378816 
L 203.304179 210.762148 
L 203.95479 210.45598 
L 205.906621 210.558265 
L 207.207841 211.149725 
L 207.858451 210.735158 
L 208.509062 210.932385 
L 209.159672 210.382939 
L 211.111503 210.568565 
L 211.762113 210.446025 
L 212.412724 210.548043 
L 213.063334 211.160584 
L 213.713944 210.425653 
L 215.015165 210.439039 
L 215.665775 210.727192 
L 216.316385 210.748459 
L 216.966996 210.525889 
L 217.617606 211.134155 
L 218.268216 210.599383 
L 220.220047 210.380598 
L 220.870658 210.627688 
L 222.822489 210.629373 
L 224.77432 210.427811 
L 225.42493 210.822924 
L 226.07554 210.370898 
L 227.376761 210.537294 
L 228.027371 210.454022 
L 228.677981 210.544014 
L 229.328592 210.435839 
L 230.629812 210.512473 
L 231.280423 210.382767 
L 231.931033 210.580896 
L 232.581643 210.926609 
L 233.232254 211.421567 
L 233.882864 210.611701 
L 234.533474 210.580056 
L 235.184085 211.281745 
L 235.834695 210.416131 
L 236.485305 211.25402 
L 237.135915 210.683639 
L 238.437136 210.378818 
L 239.087746 211.518803 
L 239.738357 210.379031 
L 240.388967 210.748377 
L 241.039577 210.524192 
L 241.690188 210.619206 
L 242.991408 210.485971 
L 243.642019 210.701622 
L 244.292629 210.799757 
L 244.943239 210.675477 
L 245.59385 210.405212 
L 246.24446 210.514395 
L 246.89507 210.427884 
L 247.54568 210.530301 
L 248.196291 210.473224 
L 248.846901 210.845714 
L 250.148122 210.429926 
L 252.099953 210.497341 
L 252.750563 211.414006 
L 253.401173 210.575092 
L 254.051784 210.538057 
L 254.702394 210.379947 
L 255.353004 210.566431 
L 256.003615 210.422289 
L 256.654225 210.741237 
L 257.304835 212.069761 
L 257.955445 211.255074 
L 258.606056 211.09996 
L 259.256666 210.750551 
L 259.907276 210.914421 
L 260.557887 210.456643 
L 261.208497 210.493444 
L 261.859107 210.395333 
L 262.509718 210.591021 
L 263.160328 210.589912 
L 263.810938 210.43931 
L 265.762769 210.430081 
L 266.413379 211.484274 
L 267.06399 210.483159 
L 267.7146 210.803412 
L 268.36521 210.502139 
L 269.015821 210.383459 
L 269.666431 210.395576 
L 270.317041 210.746781 
L 270.967652 210.396399 
L 271.618262 210.392396 
L 272.268872 211.046316 
L 272.919483 210.640733 
L 273.570093 210.387845 
L 274.871314 210.570973 
L 275.521924 210.728387 
L 276.172534 210.666844 
L 276.823144 210.490907 
L 278.774975 210.694789 
L 279.425586 211.334478 
L 280.076196 210.559594 
L 280.726806 210.805267 
L 281.377417 211.316103 
L 282.028027 210.581317 
L 282.678637 210.437047 
L 283.329248 210.632934 
L 283.979858 210.413674 
L 284.630468 210.690239 
L 285.281079 210.45932 
L 286.582299 210.610172 
L 287.232909 210.836771 
L 287.88352 210.378649 
L 289.835351 210.641146 
L 290.485961 210.391435 
L 291.787182 210.442003 
L 292.437792 211.663837 
L 293.088402 210.373674 
L 293.739013 210.624581 
L 295.040233 210.542134 
L 295.690844 211.043507 
L 296.341454 210.569587 
L 296.992064 211.077396 
L 297.642674 210.505815 
L 298.293285 210.618012 
L 298.943895 210.917526 
L 300.245116 210.541796 
L 300.895726 210.391084 
L 301.546336 211.212468 
L 302.196947 210.874201 
L 302.847557 211.085316 
L 303.498167 211.855121 
L 304.148778 210.404558 
L 305.449998 210.500424 
L 306.100608 210.656603 
L 306.751219 210.433389 
L 307.401829 210.888528 
L 308.70305 210.379879 
L 309.35366 210.816056 
L 310.00427 210.885569 
L 310.654881 210.484954 
L 313.257322 210.676859 
L 313.907932 210.425488 
L 314.558543 211.229898 
L 315.209153 210.661396 
L 315.859763 210.714878 
L 317.160984 210.429641 
L 317.811594 210.414751 
L 318.462204 210.787033 
L 319.112815 211.001873 
L 319.763425 210.476954 
L 320.414035 210.575312 
L 321.064646 210.933021 
L 321.715256 210.642226 
L 322.365866 210.574345 
L 323.016477 210.839959 
L 323.667087 210.643466 
L 324.317697 210.609301 
L 324.968308 210.390062 
L 325.618918 210.667523 
L 326.269528 210.674347 
L 326.920138 210.38536 
L 328.221359 210.789205 
L 328.871969 210.554569 
L 329.52258 210.446241 
L 330.8238 210.557988 
L 331.474411 210.433476 
L 332.125021 211.115616 
L 332.775631 211.066027 
L 333.426242 210.47511 
L 334.076852 210.697359 
L 334.727462 210.545652 
L 335.378073 210.518115 
L 336.028683 210.806032 
L 336.679293 210.475404 
L 337.329903 210.993312 
L 337.980514 210.843655 
L 338.631124 210.391908 
L 339.281734 210.767234 
L 339.932345 210.879682 
L 340.582955 210.572203 
L 341.884176 210.645253 
L 342.534786 210.410573 
L 343.185396 210.879779 
L 343.836007 210.483418 
L 344.486617 211.188609 
L 345.137227 210.744467 
L 345.787837 210.837992 
L 346.438448 210.486359 
L 347.739668 210.520637 
L 348.390279 211.219338 
L 349.040889 210.610755 
L 349.691499 211.091145 
L 350.34211 211.091609 
L 351.64333 210.4654 
L 352.293941 211.239262 
L 352.944551 210.926725 
L 353.595161 210.376659 
L 354.245772 210.531239 
L 356.197602 210.458866 
L 356.848213 211.041237 
L 357.498823 210.565919 
L 358.149433 210.422536 
L 358.800044 210.491896 
L 359.450654 210.794832 
L 360.101264 210.825503 
L 360.751875 210.666864 
L 361.402485 210.738089 
L 362.703706 210.411365 
L 363.354316 210.590716 
L 364.004926 210.937579 
L 364.655537 210.567122 
L 365.306147 210.388123 
L 365.956757 210.954702 
L 366.607367 210.784185 
L 367.257978 210.422914 
L 369.209809 211.007601 
L 369.860419 210.830351 
L 370.511029 210.457825 
L 371.81225 210.371011 
L 377.017132 210.555348 
L 377.667743 211.04877 
L 378.318353 210.655401 
L 378.968963 210.434038 
L 379.619574 210.728855 
L 380.920794 210.544453 
L 381.571405 210.600531 
L 382.222015 211.404753 
L 382.872625 210.534126 
L 383.523236 210.671301 
L 384.173846 210.447467 
L 384.824456 210.752556 
L 385.475066 210.609132 
L 386.125677 210.691982 
L 386.776287 211.438095 
L 387.426897 210.606665 
L 388.077508 211.196527 
L 389.378728 210.448031 
L 390.679949 210.823542 
L 391.330559 211.083595 
L 391.98117 210.544886 
L 392.63178 210.874246 
L 393.28239 210.444824 
L 393.933001 210.521646 
L 394.583611 210.462967 
L 395.234221 210.695913 
L 395.884831 210.50534 
L 396.535442 210.632014 
L 397.186052 210.99551 
L 397.836662 211.163429 
L 398.487273 210.463182 
L 398.487273 210.463182 
" style="fill:none;stroke:#ff0000;stroke-linecap:square;stroke-width:1.5;"/>
   </g>
   <g id="patch_3">
    <path d="M 57.6 307.584 
L 57.6 41.472 
" style="fill:none;stroke:#000000;stroke-linecap:square;stroke-linejoin:miter;stroke-width:0.8;"/>
   </g>
   <g id="patch_4">
    <path d="M 414.72 307.584 
L 414.72 41.472 
" style="fill:none;stroke:#000000;stroke-linecap:square;stroke-linejoin:miter;stroke-width:0.8;"/>
   </g>
   <g id="patch_5">
    <path d="M 57.6 307.584 
L 414.72 307.584 
" style="fill:none;stroke:#000000;stroke-linecap:square;stroke-linejoin:miter;stroke-width:0.8;"/>
   </g>
   <g id="patch_6">
    <path d="M 57.6 41.472 
L 414.72 41.472 
" style="fill:none;stroke:#000000;stroke-linecap:square;stroke-linejoin:miter;stroke-width:0.8;"/>
   </g>
   <g id="text_15">
    <!-- Population's average and best fitness -->
    <defs>
     <path d="M 19.671875 64.796875 
L 19.671875 37.40625 
L 32.078125 37.40625 
Q 38.96875 37.40625 42.71875 40.96875 
Q 46.484375 44.53125 46.484375 51.125 
Q 46.484375 57.671875 42.71875 61.234375 
Q 38.96875 64.796875 32.078125 64.796875 
z
M 9.8125 72.90625 
L 32.078125 72.90625 
Q 44.34375 72.90625 50.609375 67.359375 
Q 56.890625 61.8125 56.890625 51.125 
Q 56.890625 40.328125 50.609375 34.8125 
Q 44.34375 29.296875 32.078125 29.296875 
L 19.671875 29.296875 
L 19.671875 0 
L 9.8125 0 
z
" id="DejaVuSans-50"/>
     <path d="M 18.109375 8.203125 
L 18.109375 -20.796875 
L 9.078125 -20.796875 
L 9.078125 54.6875 
L 18.109375 54.6875 
L 18.109375 46.390625 
Q 20.953125 51.265625 25.265625 53.625 
Q 29.59375 56 35.59375 56 
Q 45.5625 56 51.78125 48.09375 
Q 58.015625 40.1875 58.015625 27.296875 
Q 58.015625 14.40625 51.78125 6.484375 
Q 45.5625 -1.421875 35.59375 -1.421875 
Q 29.59375 -1.421875 25.265625 0.953125 
Q 20.953125 3.328125 18.109375 8.203125 
M 48.6875 27.296875 
Q 48.6875 37.203125 44.609375 42.84375 
Q 40.53125 48.484375 33.40625 48.484375 
Q 26.265625 48.484375 22.1875 42.84375 
Q 18.109375 37.203125 18.109375 27.296875 
Q 18.109375 17.390625 22.1875 11.75 
Q 26.265625 6.109375 33.40625 6.109375 
Q 40.53125 6.109375 44.609375 11.75 
Q 48.6875 17.390625 48.6875 27.296875 
" id="DejaVuSans-70"/>
     <path d="M 8.5 21.578125 
L 8.5 54.6875 
L 17.484375 54.6875 
L 17.484375 21.921875 
Q 17.484375 14.15625 20.5 10.265625 
Q 23.53125 6.390625 29.59375 6.390625 
Q 36.859375 6.390625 41.078125 11.03125 
Q 45.3125 15.671875 45.3125 23.6875 
L 45.3125 54.6875 
L 54.296875 54.6875 
L 54.296875 0 
L 45.3125 0 
L 45.3125 8.40625 
Q 42.046875 3.421875 37.71875 1 
Q 33.40625 -1.421875 27.6875 -1.421875 
Q 18.265625 -1.421875 13.375 4.4375 
Q 8.5 10.296875 8.5 21.578125 
M 31.109375 56 
z
" id="DejaVuSans-75"/>
     <path d="M 9.421875 75.984375 
L 18.40625 75.984375 
L 18.40625 0 
L 9.421875 0 
z
" id="DejaVuSans-6c"/>
     <path d="M 17.921875 72.90625 
L 17.921875 45.796875 
L 9.625 45.796875 
L 9.625 72.90625 
z
" id="DejaVuSans-27"/>
     <path id="DejaVuSans-20"/>
     <path d="M 2.984375 54.6875 
L 12.5 54.6875 
L 29.59375 8.796875 
L 46.6875 54.6875 
L 56.203125 54.6875 
L 35.6875 0 
L 23.484375 0 
z
" id="DejaVuSans-76"/>
     <path d="M 45.40625 27.984375 
Q 45.40625 37.75 41.375 43.109375 
Q 37.359375 48.484375 30.078125 48.484375 
Q 22.859375 48.484375 18.828125 43.109375 
Q 14.796875 37.75 14.796875 27.984375 
Q 14.796875 18.265625 18.828125 12.890625 
Q 22.859375 7.515625 30.078125 7.515625 
Q 37.359375 7.515625 41.375 12.890625 
Q 45.40625 18.265625 45.40625 27.984375 
M 54.390625 6.78125 
Q 54.390625 -7.171875 48.1875 -13.984375 
Q 42 -20.796875 29.203125 -20.796875 
Q 24.46875 -20.796875 20.265625 -20.09375 
Q 16.0625 -19.390625 12.109375 -17.921875 
L 12.109375 -9.1875 
Q 16.0625 -11.328125 19.921875 -12.34375 
Q 23.78125 -13.375 27.78125 -13.375 
Q 36.625 -13.375 41.015625 -8.765625 
Q 45.40625 -4.15625 45.40625 5.171875 
L 45.40625 9.625 
Q 42.625 4.78125 38.28125 2.390625 
Q 33.9375 0 27.875 0 
Q 17.828125 0 11.671875 7.65625 
Q 5.515625 15.328125 5.515625 27.984375 
Q 5.515625 40.671875 11.671875 48.328125 
Q 17.828125 56 27.875 56 
Q 33.9375 56 38.28125 53.609375 
Q 42.625 51.21875 45.40625 46.390625 
L 45.40625 54.6875 
L 54.390625 54.6875 
z
" id="DejaVuSans-67"/>
     <path d="M 45.40625 46.390625 
L 45.40625 75.984375 
L 54.390625 75.984375 
L 54.390625 0 
L 45.40625 0 
L 45.40625 8.203125 
Q 42.578125 3.328125 38.25 0.953125 
Q 33.9375 -1.421875 27.875 -1.421875 
Q 17.96875 -1.421875 11.734375 6.484375 
Q 5.515625 14.40625 5.515625 27.296875 
Q 5.515625 40.1875 11.734375 48.09375 
Q 17.96875 56 27.875 56 
Q 33.9375 56 38.25 53.625 
Q 42.578125 51.265625 45.40625 46.390625 
M 14.796875 27.296875 
Q 14.796875 17.390625 18.875 11.75 
Q 22.953125 6.109375 30.078125 6.109375 
Q 37.203125 6.109375 41.296875 11.75 
Q 45.40625 17.390625 45.40625 27.296875 
Q 45.40625 37.203125 41.296875 42.84375 
Q 37.203125 48.484375 30.078125 48.484375 
Q 22.953125 48.484375 18.875 42.84375 
Q 14.796875 37.203125 14.796875 27.296875 
" id="DejaVuSans-64"/>
     <path d="M 48.6875 27.296875 
Q 48.6875 37.203125 44.609375 42.84375 
Q 40.53125 48.484375 33.40625 48.484375 
Q 26.265625 48.484375 22.1875 42.84375 
Q 18.109375 37.203125 18.109375 27.296875 
Q 18.109375 17.390625 22.1875 11.75 
Q 26.265625 6.109375 33.40625 6.109375 
Q 40.53125 6.109375 44.609375 11.75 
Q 48.6875 17.390625 48.6875 27.296875 
M 18.109375 46.390625 
Q 20.953125 51.265625 25.265625 53.625 
Q 29.59375 56 35.59375 56 
Q 45.5625 56 51.78125 48.09375 
Q 58.015625 40.1875 58.015625 27.296875 
Q 58.015625 14.40625 51.78125 6.484375 
Q 45.5625 -1.421875 35.59375 -1.421875 
Q 29.59375 -1.421875 25.265625 0.953125 
Q 20.953125 3.328125 18.109375 8.203125 
L 18.109375 0 
L 9.078125 0 
L 9.078125 75.984375 
L 18.109375 75.984375 
z
" id="DejaVuSans-62"/>
     <path d="M 37.109375 75.984375 
L 37.109375 68.5 
L 28.515625 68.5 
Q 23.6875 68.5 21.796875 66.546875 
Q 19.921875 64.59375 19.921875 59.515625 
L 19.921875 54.6875 
L 34.71875 54.6875 
L 34.71875 47.703125 
L 19.921875 47.703125 
L 19.921875 0 
L 10.890625 0 
L 10.890625 47.703125 
L 2.296875 47.703125 
L 2.296875 54.6875 
L 10.890625 54.6875 
L 10.890625 58.5 
Q 10.890625 67.625 15.140625 71.796875 
Q 19.390625 75.984375 28.609375 75.984375 
z
" id="DejaVuSans-66"/>
    </defs>
    <g transform="translate(123.315 35.472)scale(0.12 -0.12)">
     <use xlink:href="#DejaVuSans-50"/>
     <use x="60.255859" xlink:href="#DejaVuSans-6f"/>
     <use x="121.4375" xlink:href="#DejaVuSans-70"/>
     <use x="184.914062" xlink:href="#DejaVuSans-75"/>
     <use x="248.292969" xlink:href="#DejaVuSans-6c"/>
     <use x="276.076172" xlink:href="#DejaVuSans-61"/>
     <use x="337.355469" xlink:href="#DejaVuSans-74"/>
     <use x="376.564453" xlink:href="#DejaVuSans-69"/>
     <use x="404.347656" xlink:href="#DejaVuSans-6f"/>
     <use x="465.529297" xlink:href="#DejaVuSans-6e"/>
     <use x="528.908203" xlink:href="#DejaVuSans-27"/>
     <use x="556.398438" xlink:href="#DejaVuSans-73"/>
     <use x="608.498047" xlink:href="#DejaVuSans-20"/>
     <use x="640.285156" xlink:href="#DejaVuSans-61"/>
     <use x="701.564453" xlink:href="#DejaVuSans-76"/>
     <use x="760.744141" xlink:href="#DejaVuSans-65"/>
     <use x="822.267578" xlink:href="#DejaVuSans-72"/>
     <use x="863.380859" xlink:href="#DejaVuSans-61"/>
     <use x="924.660156" xlink:href="#DejaVuSans-67"/>
     <use x="988.136719" xlink:href="#DejaVuSans-65"/>
     <use x="1049.660156" xlink:href="#DejaVuSans-20"/>
     <use x="1081.447266" xlink:href="#DejaVuSans-61"/>
     <use x="1142.726562" xlink:href="#DejaVuSans-6e"/>
     <use x="1206.105469" xlink:href="#DejaVuSans-64"/>
     <use x="1269.582031" xlink:href="#DejaVuSans-20"/>
     <use x="1301.369141" xlink:href="#DejaVuSans-62"/>
     <use x="1364.845703" xlink:href="#DejaVuSans-65"/>
     <use x="1426.369141" xlink:href="#DejaVuSans-73"/>
     <use x="1478.46875" xlink:href="#DejaVuSans-74"/>
     <use x="1517.677734" xlink:href="#DejaVuSans-20"/>
     <use x="1549.464844" xlink:href="#DejaVuSans-66"/>
     <use x="1584.669922" xlink:href="#DejaVuSans-69"/>
     <use x="1612.453125" xlink:href="#DejaVuSans-74"/>
     <use x="1651.662109" xlink:href="#DejaVuSans-6e"/>
     <use x="1715.041016" xlink:href="#DejaVuSans-65"/>
     <use x="1776.564453" xlink:href="#DejaVuSans-73"/>
     <use x="1828.664062" xlink:href="#DejaVuSans-73"/>
    </g>
   </g>
   <g id="legend_1">
    <g id="patch_7">
     <path d="M 334.779375 93.506375 
L 407.72 93.506375 
Q 409.72 93.506375 409.72 91.506375 
L 409.72 48.472 
Q 409.72 46.472 407.72 46.472 
L 334.779375 46.472 
Q 332.779375 46.472 332.779375 48.472 
L 332.779375 91.506375 
Q 332.779375 93.506375 334.779375 93.506375 
z
" style="fill:#ffffff;opacity:0.8;stroke:#cccccc;stroke-linejoin:miter;"/>
    </g>
    <g id="line2d_28">
     <path d="M 336.779375 54.570438 
L 356.779375 54.570438 
" style="fill:none;stroke:#0000ff;stroke-linecap:square;stroke-width:1.5;"/>
    </g>
    <g id="line2d_29"/>
    <g id="text_16">
     <!-- average -->
     <g transform="translate(364.779375 58.070438)scale(0.1 -0.1)">
      <use xlink:href="#DejaVuSans-61"/>
      <use x="61.279297" xlink:href="#DejaVuSans-76"/>
      <use x="120.458984" xlink:href="#DejaVuSans-65"/>
      <use x="181.982422" xlink:href="#DejaVuSans-72"/>
      <use x="223.095703" xlink:href="#DejaVuSans-61"/>
      <use x="284.375" xlink:href="#DejaVuSans-67"/>
      <use x="347.851562" xlink:href="#DejaVuSans-65"/>
     </g>
    </g>
    <g id="line2d_30">
     <path d="M 336.779375 69.248563 
L 356.779375 69.248563 
" style="fill:none;stroke:#008000;stroke-dasharray:9.6,2.4,1.6,2.4;stroke-dashoffset:0;stroke-width:1.5;"/>
    </g>
    <g id="line2d_31"/>
    <g id="text_17">
     <!-- +1 sd -->
     <defs>
      <path d="M 46 62.703125 
L 46 35.5 
L 73.1875 35.5 
L 73.1875 27.203125 
L 46 27.203125 
L 46 0 
L 37.796875 0 
L 37.796875 27.203125 
L 10.59375 27.203125 
L 10.59375 35.5 
L 37.796875 35.5 
L 37.796875 62.703125 
z
" id="DejaVuSans-2b"/>
     </defs>
     <g transform="translate(364.779375 72.748563)scale(0.1 -0.1)">
      <use xlink:href="#DejaVuSans-2b"/>
      <use x="83.789062" xlink:href="#DejaVuSans-31"/>
      <use x="147.412109" xlink:href="#DejaVuSans-20"/>
      <use x="179.199219" xlink:href="#DejaVuSans-73"/>
      <use x="231.298828" xlink:href="#DejaVuSans-64"/>
     </g>
    </g>
    <g id="line2d_32">
     <path d="M 336.779375 83.926688 
L 356.779375 83.926688 
" style="fill:none;stroke:#ff0000;stroke-linecap:square;stroke-width:1.5;"/>
    </g>
    <g id="line2d_33"/>
    <g id="text_18">
     <!-- best -->
     <g transform="translate(364.779375 87.426688)scale(0.1 -0.1)">
      <use xlink:href="#DejaVuSans-62"/>
      <use x="63.476562" xlink:href="#DejaVuSans-65"/>
      <use x="125" xlink:href="#DejaVuSans-73"/>
      <use x="177.099609" xlink:href="#DejaVuSans-74"/>
     </g>
    </g>
   </g>
  </g>
 </g>
 <defs>
  <clipPath id="p5fd1f5817c">
   <rect height="266.112" width="357.12" x="57.6" y="41.472"/>
  </clipPath>
 </defs>
</svg>
